<?xml version="1.0" encoding="UTF-8" standalone="no"?>
<svg
   version="1.1"
   style="display: block;"
   viewBox="0 0 2048 2048"
   width="1024"
   height="1024"
   preserveAspectRatio="none"
   id="svg8"
   sodipodi:docname="sqtx_logo_v2.svg"
   inkscape:version="1.3.2 (091e20e, 2023-11-25)"
   xmlns:inkscape="http://www.inkscape.org/namespaces/inkscape"
   xmlns:sodipodi="http://sodipodi.sourceforge.net/DTD/sodipodi-0.dtd"
   xmlns="http://www.w3.org/2000/svg"
   xmlns:svg="http://www.w3.org/2000/svg">
  <defs
     id="defs8" />
  <sodipodi:namedview
     id="namedview8"
     pagecolor="#505050"
     bordercolor="#eeeeee"
     borderopacity="1"
     inkscape:showpageshadow="0"
     inkscape:pageopacity="0"
     inkscape:pagecheckerboard="0"
     inkscape:deskcolor="#505050"
     inkscape:zoom="1"
     inkscape:cx="520"
     inkscape:cy="458.5"
     inkscape:window-width="1920"
     inkscape:window-height="938"
     inkscape:window-x="1710"
     inkscape:window-y="510"
     inkscape:window-maximized="0"
     inkscape:current-layer="svg8" />
  <path
     transform="translate(0,0)"
     fill="rgb(62,62,62)"
     d="M 714.076 1121.55 C 732.448 1140.2 745.244 1155.16 770.222 1165.5 C 836.998 1193.14 896.967 1193.27 963.241 1167.77 C 977.633 1181.84 992.235 1195.69 1007.04 1209.32 C 1008.58 1229.52 1006.26 1252.63 1006.1 1272.86 C 1005.86 1302.76 1005.91 1332.76 1005.83 1362.67 L 1003.9 1719.32 C 982.724 1705.11 960.235 1688.28 939.493 1673.27 L 834.488 1597.26 L 560.519 1397.5 L 479.076 1338.57 C 464.004 1327.71 446.001 1315.38 432.014 1303.78 C 432.881 1255.28 432.71 1205.29 433.025 1156.66 C 447.883 1163.44 461.252 1169.49 476.948 1174.4 C 554.434 1198.69 663.487 1193.78 714.076 1121.55 z"
     id="path1" />
  <path
     fill="#3e3e3e"
     d="m 1428.9534,1118.0212 c 0.2273,-0.1656 52.0666,48.7588 64.7966,62.8588 41.38,0.7 82.77,0.98 124.16,0.84 -0.29,17.58 -0.46,34.9 0.02,52.48 0.54,19.43 2.55,48.59 0.07,67.64 -42.77,27.49 -91.68,64.62 -133.16,94.59 l -209.43,150.71 -67.22,47.78 c -5.38,3.83 -18.48,16.07 -23.92,16.03 -1.72,-2.68 -1.16,-2.31 -1.38,-5.97 -48.4,33.63 -97.59,70.93 -146.37,105.33 l -1.35,-354.85 -0.23,-98.96 c -0.04,-15.42 -0.9024,-27.4269 0.028,-42.7269 0.42,-6.81 18.4724,-27.6331 24.3124,-32.1631 l 215.21,0.35 c 1.36,22.44 0.4,53.78 0.37,76.94 14.11,-10.41 48.958,-64.9498 62.668,-76.4198 l 27.1087,-0.486 z"
     id="path2"
     sodipodi:nodetypes="cccccccccccccccccccc" />
  <path
     fill="#f68020"
     d="m 1058.8976,1181.4188 278.6165,0.7212 -153.0317,235.9674 -1.4012,192.9904 c -48.4,33.63 -97.9724,73.7977 -146.7524,108.1977 l -1.1588,-363.8355 -0.23,-98.96 c -0.04,-15.42 -1.0935,-33.9271 -0.1635,-49.2271 z"
     id="path3"
     sodipodi:nodetypes="ccccccccc" />
  <path
     fill="#3e3e3e"
     d="m 1038.89,226.184 c 21.24,14.121 43.91,32.363 64.81,47.586 l 166.07,122.66 233.81,173.847 c 37.99,28.151 75.76,56.591 113.32,85.316 -1.34,9.204 -1,36.455 -0.85,46.725 0.28,18.17 -0.67,40.082 0.09,57.899 l -75.06,0.62 c -15.64,0.116 -46.7273,0.1303 -46.7273,0.1303 L 1432.4302,826.95277 1377.9691,763.8218 1109.51,762.33 c -21.59,0.139 -45.42,-0.61 -66.72,0.102 -2.94,0.687 -3.79,0.777 -5.86,-0.95 -0.82,-18.169 0.43,-45.375 0.58,-64.419 l 0.57,-134.648 c -1.25,-36.453 -0.48,-73.457 -0.12,-109.982 0.75,-75.431 0.68,-150.817 0.93,-226.249 z"
     id="path4"
     sodipodi:nodetypes="cccccccccccccccccc" />
  <path
     transform="translate(0,0)"
     fill="rgb(62,62,62)"
     d="M 848.073 369.701 C 901.455 333.873 954.174 291.779 1006.95 254.804 L 1007.06 797.009 C 960.234 764.208 903.147 749.404 846.283 755.314 C 806.937 759.015 767.004 772.957 736.107 798.171 C 727.526 805.174 713.951 819.69 705.266 824.644 L 703.92 824.181 C 700.945 817.96 701.711 800.261 701.715 792.556 C 701.042 792.062 700.365 791.575 699.682 791.096 C 629.307 741.7 485.792 739.275 432.007 816.068 C 431.155 800.883 431.952 777.353 431.992 761.722 L 432.354 659.064 C 438.581 653.283 460.951 637.688 468.651 632.025 L 558.524 567.154 L 716.978 452.077 C 760.487 420.781 803.809 389.225 846.941 357.411 C 847 362.579 847.202 364.602 848.073 369.701 z"
     id="path5" />
  <path
     fill="#66178e"
     d="M 846.80394,357.529 1006.95,227.45589 1007.06,797.009 c -46.826,-32.801 -103.913,-47.605 -160.777,-41.695 -1.811,-23.747 0.52094,-397.785 0.52094,-397.785 z"
     id="path6"
     sodipodi:nodetypes="ccccc" />
  <path
     transform="translate(0,0)"
     fill="rgb(102,23,142)"
     d="M 552.74 786.465 C 561.587 786.562 569.772 785.527 579.333 785.895 C 614.796 787.261 642.664 795.778 675.055 808.435 C 675.413 834.509 674.056 862.095 674.811 887.881 C 664.144 882.916 654.306 878.348 642.035 873.824 C 612.708 863.013 537.767 844.817 524.217 886.179 C 512.562 921.757 585.912 934.908 608.956 941.38 C 641.897 950.633 667.69 963.573 685.651 995.63 C 685.538 994.849 685.432 994.068 685.332 993.285 C 682.855 973.629 683.947 958.682 687.218 939.025 C 702.907 844.747 780.647 782.728 875.995 786.449 C 929.056 788.519 960.304 801.183 1002.17 834.108 C 987.288 851.325 971.264 874.398 956.66 892.867 C 983.967 889.692 1011.34 887.126 1038.76 885.173 C 1047.27 909.334 1052.17 913.15 1056.59 942.385 C 1064.09 990.1 1052.13 1038.83 1023.39 1077.65 C 1040.02 1094.82 1061.28 1110.93 1078.63 1128.83 C 1071.59 1135.15 1064.93 1141.37 1058.78 1148.58 C 1046.76 1160.97 1034.24 1173.55 1022.86 1186.48 C 1004.13 1168.31 985.18 1150.72 966.548 1132.4 C 887.642 1171.41 796.156 1165.34 731.947 1099.86 C 714.951 1082.52 707.174 1067.4 696.844 1045.85 C 695.805 1060.77 695.091 1080.02 688.665 1093.6 C 658.01 1158.36 564.478 1164.5 503.236 1151.24 C 481.268 1146.48 455.902 1136.2 435.711 1127.07 L 435.469 1046.8 C 470.12 1067.37 557.728 1101.22 597.667 1067.71 C 608.859 1058.32 602.868 1034.55 590.533 1026.87 C 578.566 1019.42 565.002 1014.98 551.3 1010.99 C 500.349 994.29 436.17 974.221 431.707 911.175 C 426.05 831.288 478.135 793.323 552.74 786.465 z M 907.979 1066.58 C 894.132 1051.73 881.306 1040.23 866.642 1026.41 C 861.699 1022.15 855.35 1016.97 850.819 1012.48 C 861.833 996.592 894.398 968.683 908.831 953.643 C 922.355 969.436 943.725 994.499 959.231 1008.46 C 972.818 951.584 958.595 888.341 894.786 873.458 C 883.126 870.809 871.112 870.086 859.219 871.317 C 793.593 883.324 771.214 930.853 781.154 994.235 C 789.649 1048.4 837.192 1082.12 891.132 1070.84 C 896.797 1069.62 902.416 1068.2 907.979 1066.58 z"
     id="path7" />
  <path
     transform="translate(0,0)"
     fill="rgb(246,128,32)"
     d="M 1053.45 791.113 L 1364.99 791.908 C 1370.3 799.618 1376.14 810.106 1381.17 818.29 L 1413.62 870.544 C 1418.14 877.732 1426.81 892.332 1431.98 898.375 C 1451.01 870.425 1468.19 840.983 1487.26 813.036 C 1491.99 806.121 1496.63 798.627 1502.44 792.591 C 1526.5 790.995 1555.17 792.667 1579.61 791.807 C 1590.38 791.429 1600.18 792.207 1611.18 790.978 C 1607.75 795.051 1604.87 799.449 1601.77 803.761 C 1568.49 850.061 1536.81 897.21 1505.91 945.133 C 1500.21 953.979 1494.11 962.338 1488.99 971.584 C 1491.68 976.354 1496.45 982.403 1499.73 987.311 L 1522.38 1021.46 C 1551.38 1064.99 1581.96 1108.96 1610.63 1152.54 C 1576.85 1153.73 1535.05 1153.19 1501.27 1152.33 C 1477.48 1115.32 1453.44 1078.46 1429.17 1041.76 C 1421.04 1051.32 1412.04 1066.2 1405.13 1076.99 C 1389.43 1102.51 1372.58 1126.91 1357.21 1153.01 C 1332.25 1153.69 1306.57 1152.64 1281.55 1153.13 C 1271.04 1153.34 1257.05 1152.86 1246.95 1154.17 C 1288.3 1094.11 1332.13 1031.8 1371.91 970.828 C 1362.39 958.358 1352.88 943.008 1344.19 929.692 C 1331.57 910.726 1319.29 891.54 1307.34 872.143 C 1279.33 868.18 1235.83 873.936 1207.12 871.365 L 1207.05 1152.54 C 1179.36 1154.2 1139.36 1153 1111.01 1152.99 L 1110.92 871.653 C 1072.43 869.546 1031.87 872.928 993.224 870.814 C 999.607 861.12 1047.26 796.02 1053.45 791.113 z"
     id="path8" />
</svg>
